<svg xmlns="http://www.w3.org/2000/svg" width="302.85" height="301.93" viewBox="0 0 302.85 301.93"><g id="a9820d47-c14e-43b4-a001-11b9481e1432" data-name="Layer 2"><g id="b5a8005d-71c4-41bc-b88f-c946faf40ebf" data-name="Layer 1"><path d="M75.93,241.52a102.56,102.56,0,0,0,32.83,21.62,104.32,104.32,0,0,0,39.9,7.68,102.2,102.2,0,0,0,40.09-8,103.57,103.57,0,0,0,32.95-22.17A105.83,105.83,0,0,0,244,207.92a102.54,102.54,0,0,0,0-80A107.41,107.41,0,0,0,221.73,95a104.55,104.55,0,0,0-32.94-22.45,100.75,100.75,0,0,0-40.13-8.12,99.74,99.74,0,0,0-40,8.13,105.52,105.52,0,0,0-54.91,55.34,101.28,101.28,0,0,0-8,40,104.25,104.25,0,0,0,8,40.89A100.42,100.42,0,0,0,75.93,241.52Zm2-103.21a77.83,77.83,0,0,1,40.65-42,72.93,72.93,0,0,1,30.05-6.23,73.77,73.77,0,0,1,29.83,6.11,78.72,78.72,0,0,1,41.18,41.67,78.49,78.49,0,0,1,0,60.17,77.78,77.78,0,0,1-41.15,41.14,75.63,75.63,0,0,1-30.13,6,73.47,73.47,0,0,1-29.46-6A78.39,78.39,0,0,1,94.48,222.6,76.24,76.24,0,0,1,72.2,168.16,78.43,78.43,0,0,1,78,138.31Z" fill="#25486b"/><path d="M110.11,206.91a55.82,55.82,0,0,0,60,11.33,55.27,55.27,0,0,0,17.52-11.78A56.24,56.24,0,0,0,199.45,189a54.54,54.54,0,0,0,0-42.5A57.22,57.22,0,0,0,187.61,129a55.49,55.49,0,0,0-17.51-11.93,53.52,53.52,0,0,0-21.32-4.32,53,53,0,0,0-21.25,4.32,56.16,56.16,0,0,0-29.21,29.43,53.77,53.77,0,0,0-4.23,21.24,55.34,55.34,0,0,0,4.23,21.74A53.44,53.44,0,0,0,110.11,206.91Zm55.52-74a39.33,39.33,0,0,1,10.37,7.5,39.79,39.79,0,0,1,8.27,12.4,39.11,39.11,0,0,1,0,30.07,38.92,38.92,0,0,1-20.55,20.55,38,38,0,0,1-15.07,3,36.87,36.87,0,0,1-14.73-3,39.41,39.41,0,0,1-12.21-8.29,38.25,38.25,0,0,1-7.55-10.77Z" fill="#25486b"/><rect x="199.81" width="45.73" height="25.62" fill="#25486b"/><path d="M0,25.64V301.93H302.85V25.64ZM276.68,276.3H26.17v-225H276.68Z" fill="#25486b"/></g></g></svg>