<svg id="bf0fcc38-f37f-4c81-8a4d-709787b95f10" data-name="Layer 1" xmlns="http://www.w3.org/2000/svg" width="500mm" height="250mm" viewBox="0 0 1417.32 708.66"><path d="M190.36,306A52.4,52.4,0,0,0,167,285.6c-9.6-4.36-20.86-6.58-33.45-6.58H83.32V481.13H109.5V401.81h22.71c11.48,0,21.51-1.78,29.84-5.31A59.53,59.53,0,0,0,183,382.12a56.36,56.36,0,0,0,12-20.33,71.73,71.73,0,0,0,3.67-22.71C198.67,326,195.87,314.88,190.36,306Zm-38,66.46c-5.2,2.49-12,3.75-20.18,3.75H109.5v-71.5h25.37a48,48,0,0,1,16.62,2.65,33.85,33.85,0,0,1,11.71,7.11A28.79,28.79,0,0,1,170.28,325a38.51,38.51,0,0,1,2.47,14.09,41.77,41.77,0,0,1-2,11.94,38.52,38.52,0,0,1-6.39,12.16A32.35,32.35,0,0,1,152.39,372.42Z" fill="#25486b"/><path d="M590.7,332.73a107.57,107.57,0,0,0-22.25-32.88,104.72,104.72,0,0,0-32.94-22.45,100.74,100.74,0,0,0-40.13-8.11,99.57,99.57,0,0,0-40,8.13,105.45,105.45,0,0,0-54.91,55.33,101.11,101.11,0,0,0-8,40,104.25,104.25,0,0,0,8,40.89,100.73,100.73,0,0,0,22.21,32.73A102.44,102.44,0,0,0,455.48,468a104.29,104.29,0,0,0,39.9,7.68,102.23,102.23,0,0,0,40.09-8,103.68,103.68,0,0,0,32.95-22.17,105.83,105.83,0,0,0,22.28-32.76,102.52,102.52,0,0,0,0-80Zm-24.3,70.15A77.72,77.72,0,0,1,525.25,444a75.66,75.66,0,0,1-30.13,6,73.43,73.43,0,0,1-29.46-6,78.41,78.41,0,0,1-24.46-16.58A76.24,76.24,0,0,1,418.91,373a78.06,78.06,0,0,1,46.42-71.84,73.09,73.09,0,0,1,30.05-6.23A73.94,73.94,0,0,1,525.21,301a78.63,78.63,0,0,1,41.17,41.68,78.43,78.43,0,0,1,0,60.17Z" fill="#25486b"/><path d="M546.17,351.36a57.07,57.07,0,0,0-11.85-17.49,55.34,55.34,0,0,0-17.5-11.93,53.56,53.56,0,0,0-21.32-4.32,52.94,52.94,0,0,0-21.25,4.32A56.13,56.13,0,0,0,445,351.38a53.72,53.72,0,0,0-4.23,21.23A55.3,55.3,0,0,0,445,394.35a53.28,53.28,0,0,0,11.79,17.39,55.84,55.84,0,0,0,60,11.34,55.24,55.24,0,0,0,17.52-11.79,56.17,56.17,0,0,0,11.85-17.42,54.57,54.57,0,0,0,0-42.51ZM531,387.67a39,39,0,0,1-20.55,20.54,38,38,0,0,1-15.07,3,37,37,0,0,1-14.74-3,39.31,39.31,0,0,1-12.2-8.29,37.77,37.77,0,0,1-7.55-10.77l51.46-51.46a39.34,39.34,0,0,1,10.36,7.5,39.76,39.76,0,0,1,8.28,12.4,39.14,39.14,0,0,1,0,30.08Z" fill="#25486b"/><polygon points="1333.11 230.47 1333.11 256.1 649.56 256.1 649.56 481.13 623.4 481.13 623.4 256.1 372.89 256.1 372.89 481.13 346.71 481.13 346.71 392.24 245.94 392.24 245.94 481.13 219.77 481.13 219.77 256.1 83.32 256.1 83.32 230.47 245.94 230.47 245.94 366.86 346.71 366.86 346.71 230.47 1333.11 230.47" fill="#25486b"/><rect x="546.53" y="204.84" width="45.73" height="25.62" fill="#25486b"/><path d="M867,340.33a107.22,107.22,0,0,0-22.25-32.88A104.17,104.17,0,0,0,811.81,285a102.81,102.81,0,0,0-80.14,0,105.37,105.37,0,0,0-54.92,55.35,100.94,100.94,0,0,0-8,40,104.16,104.16,0,0,0,8,40.9A100.21,100.21,0,0,0,699,454a102.34,102.34,0,0,0,32.83,21.6,104.05,104.05,0,0,0,39.89,7.69,101.83,101.83,0,0,0,40.1-8,103.29,103.29,0,0,0,33-22.17A105.66,105.66,0,0,0,867,420.36a102.54,102.54,0,0,0,0-80ZM842.7,410.48a77.84,77.84,0,0,1-41.15,41.15,75.81,75.81,0,0,1-30.14,6,73.5,73.5,0,0,1-29.46-6,78.49,78.49,0,0,1-24.44-16.58,76.14,76.14,0,0,1-22.3-54.44,78,78,0,0,1,46.41-71.85,73,73,0,0,1,30-6.22,73.81,73.81,0,0,1,29.84,6.1,78.81,78.81,0,0,1,41.18,41.67,78.61,78.61,0,0,1,0,60.17Z" fill="#25486b"/><path d="M1091.58,345.77a99.66,99.66,0,0,0-18.79-33c-8.59-10.11-19.89-18.35-33.6-24.49S1008.92,279,989.81,279H936.65V481.1h62.21a100.94,100.94,0,0,0,37.27-7A98,98,0,0,0,1067.64,454a95.65,95.65,0,0,0,21.87-31.55c5.3-12.23,8-26.14,8-41.35A111.79,111.79,0,0,0,1091.58,345.77ZM1049,435.42a71.36,71.36,0,0,1-24,14.87,84.08,84.08,0,0,1-29.63,5.16H962.83V304.91h28.83c13.25,0,24.94,2.07,34.74,6.14a71.85,71.85,0,0,1,24.65,16.58,69.23,69.23,0,0,1,15,24,82.64,82.64,0,0,1,5.06,28.72c0,11.83-2,22.47-5.87,31.64A68.92,68.92,0,0,1,1049,435.42Z" fill="#25486b"/><polygon points="1246.71 455.45 1246.71 481.1 1113.28 481.1 1113.28 278.99 1242.98 278.99 1242.98 304.64 1139.46 304.64 1139.46 366.56 1232.61 366.56 1232.61 392.21 1139.46 392.21 1139.46 455.45 1246.71 455.45" fill="#25486b"/><path d="M1334,278.11V434.89c0,13.85-2.77,25.94-8.25,35.92a60.27,60.27,0,0,1-22.94,23.71,70.88,70.88,0,0,1-33.44,9.06l-7.78.24V481.26l6.94-.36a37.25,37.25,0,0,0,26.2-12c7.51-7.9,11.31-19.6,11.31-34.78v-156Z" fill="#25486b"/></svg>